<?xml version="1.0" encoding="UTF-8" standalone="no"?>
<!-- Generator: Adobe Illustrator 21.0.2, SVG Export Plug-In . SVG Version: 6.00 Build 0)  -->

<svg
   xmlns:dc="http://purl.org/dc/elements/1.1/"
   xmlns:cc="http://creativecommons.org/ns#"
   xmlns:rdf="http://www.w3.org/1999/02/22-rdf-syntax-ns#"
   xmlns:svg="http://www.w3.org/2000/svg"
   xmlns="http://www.w3.org/2000/svg"
   xmlns:sodipodi="http://sodipodi.sourceforge.net/DTD/sodipodi-0.dtd"
   xmlns:inkscape="http://www.inkscape.org/namespaces/inkscape"
   version="1.1"
   x="0px"
   y="0px"
   viewBox="0 0 120 120"
   style="enable-background:new 0 0 120 120;"
   xml:space="preserve"
   id="svg49"
   sodipodi:docname="emoji_u1f994_200d_1f43c.svg"
   inkscape:version="0.92.1 r15371"><metadata
     id="metadata55"><rdf:RDF><cc:Work
         rdf:about=""><dc:format>image/svg+xml</dc:format><dc:type
           rdf:resource="http://purl.org/dc/dcmitype/StillImage" /><dc:title></dc:title></cc:Work></rdf:RDF></metadata><defs
     id="defs53" /><sodipodi:namedview
     pagecolor="#ffffff"
     bordercolor="#666666"
     borderopacity="1"
     objecttolerance="10"
     gridtolerance="10"
     guidetolerance="10"
     inkscape:pageopacity="0"
     inkscape:pageshadow="2"
     inkscape:window-width="1301"
     inkscape:window-height="744"
     id="namedview51"
     showgrid="false"
     inkscape:zoom="1.9666667"
     inkscape:cx="-26.694915"
     inkscape:cy="60"
     inkscape:window-x="65"
     inkscape:window-y="24"
     inkscape:window-maximized="1"
     inkscape:current-layer="svg49" /><style
     type="text/css"
     id="style2">
	.st0{fill:#131313;}
	.st1{fill:#4C4C4C;}
	.st2{fill:#262626;}
	.st3{fill:url(#SVGID_1_);}
	.st4{fill:#ED7770;}
	.st5{fill:#262626;stroke:#262626;stroke-width:3;stroke-linecap:round;stroke-linejoin:round;stroke-miterlimit:10;}
</style><g
     id="Layer_1" /><g
     id="Layer_2" /><g
     id="Layer_3"><g
       id="g45"><path
         class="st0"
         d="M60.7,19.6L73.3,6c0,0,2,26.5,0.6,28.4c-1.4,1.8,17-25.9,17-25.9L90,35.1l15.7-7.5l-6.6,21.8l14.3,2.2    l-10.7,11.6l10.9,1.5l-11.5,10l12,1.7l-13.2,8.4l9.9,8.4l-23,12L60.9,105"
         id="path6" /><path
         class="st0"
         d="M59.9,19.6L47.3,6c0,0-2,26.5-0.6,28.4C48,36.2,29.5,8.4,29.5,8.4l0.8,26.7l-15.9-7.5l6.7,21.8L6.7,51.6    l10.8,11.6l-11,1.5l11.6,10L6,76.4l13.4,8.4l-10,8.4l23.2,12l27.1-0.2"
         id="path8" /><g
         id="g14"><path
           class="st1"
           d="M99.3,59.8c1.1-7.1,8.6-15.5,2.6-23.2s-12.5-6.2-17-4.8s-5.7,4-14.8,1.9C61,31.6,99.3,59.8,99.3,59.8z"
           id="path10" /><path
           class="st1"
           d="M19.8,59.8c-1.1-7.1-8.6-15.5-2.6-23.2s12.5-6.2,17-4.8s5.7,4,14.8,1.9C58.1,31.6,19.8,59.8,19.8,59.8z"
           id="path12" /></g><path
         class="st2"
         d="M60.3,7l-7.1,25.4L39.5,10.7c0,0,2,29.4,2,30.3C41.5,41.9,23,21,23,21l4.8,29.3l-20-6.5l16.4,17.9L5,56.4    l13,12.2L1.3,68.2l17.5,11.1L2.6,83.5l28.2,16l-9.8,6.6l40.6,7.9"
         id="path16" /><path
         class="st2"
         d="M61.5,114"
         id="path18" /><path
         class="st2"
         d="M60.3,7l7,25.4L81,10.7c0,0-2,29.4-2,30.3c0,0.9,18.3-19.9,18.3-19.9l-4.7,29.3l19.8-6.5L96.2,61.7l18.9-5.3    l-12.9,12.2l16.6-0.4l-17.3,11.1l16.1,4.1l-27.9,16l9.7,6.6L61.5,114"
         id="path20" /><linearGradient
         id="SVGID_1_"
         gradientUnits="userSpaceOnUse"
         x1="60.1305"
         y1="67.834"
         x2="60.1305"
         y2="282.8124"><stop
           offset="0"
           style="stop-color:#FFFFFF"
           id="stop22" /><stop
           offset="1"
           style="stop-color:#000000"
           id="stop24" /></linearGradient><path
         class="st3"
         d="M104.2,74.4c0-24.3-19.7-42-44-42s-44,18.6-44,42.9s19.7,37.3,44,37.3S104.2,98.7,104.2,74.4z"
         id="path27" /><ellipse
         class="st2"
         cx="60.1"
         cy="85.3"
         rx="7.4"
         ry="6"
         id="ellipse29" /><path
         class="st2"
         d="M48.2,64.5c-5.2-4.7-13.7-0.7-20.1,6.8c-9.2,15.8,3,20,3,20c7.1,2.3,10.1-3.1,16.8-9.2    C52.7,77.6,55.7,71.2,48.2,64.5z M43.8,77.1c-2.8,0-5-2.3-5-5c0-2.8,2.3-5,5-5c2.8,0,5,2.3,5,5C48.9,74.9,46.6,77.1,43.8,77.1z"
         id="path31" /><g
         id="g39"><g
           id="g37"><path
             class="st2"
             d="M67.9,96.2c0,0-3.1,1.7-7.4,1.7s-8.4-1.7-8.4-1.7s0,4.7,3,7.4c0.8-2,2.7-3.4,4.9-3.4c2.3,0,4.3,1.5,5,3.6      C67.9,101.2,67.9,96.2,67.9,96.2z"
             id="path33" /><path
             class="st4"
             d="M60,100.3c-2.2,0-4.2,1.4-4.9,3.4c1.1,1,2.7,1.8,4.9,1.9c2.2,0.1,3.8-0.6,5-1.6      C64.3,101.8,62.3,100.3,60,100.3z"
             id="path35" /></g></g><path
         class="st5"
         d="M60.1,85.3c0.1,7.6,1.4,14,9.3,8.1c-2.1,3.1-6,5-9,5s-5.6-0.4-9.3-4.1C60.1,100.8,60.1,85.3,60.1,85.3"
         id="path41" /><path
         class="st2"
         d="M71.8,81.3c6.6,6.2,9.6,11.5,16.8,9.2c0,0,12.2-4.2,3-20c-6.4-7.5-14.9-11.5-20.1-6.8    C64,70.5,67,76.9,71.8,81.3z M70.8,71.4c0-2.8,2.3-5,5-5c2.8,0,5,2.3,5,5c0,2.8-2.3,5-5,5C73.1,76.4,70.8,74.1,70.8,71.4z"
         id="path43" /></g></g><g
     id="Layer_4" /></svg>